<svg xmlns="http://www.w3.org/2000/svg" width="100" height="101" viewBox="0 0 100 101" fill="none"><g clip-path="url(#clip0_1_146)"><path d="M13.7081 29.3816C14.4304 22.0049 18.0655 15.6427 22.7532 13.5496C23.8486 13.0609 25.1325 13.5523 25.6212 14.6472C26.1102 15.7423 25.6187 17.0265 24.5236 17.5154C21.7747 18.7426 18.6617 23.3581 18.0303 29.805C17.9206 30.9266 16.9757 31.765 15.8719 31.765C15.801 31.765 15.7297 31.7614 15.6577 31.7545C14.464 31.6375 13.5913 30.5753 13.7081 29.3816ZM17.8747 73.9363C17.8747 75.1357 16.9025 76.1078 15.7032 76.1078H6.75498C6.10079 76.1078 5.48156 75.813 5.06921 75.3048C4.65685 74.7969 4.49547 74.1301 4.62988 73.4901C5.6642 68.5638 7.8021 64.3938 10.8728 61.2646C5.45093 57.3236 1.65035 51.1179 0.0464061 43.4813C-0.0879985 42.8408 0.0733785 42.1741 0.485735 41.6664C0.898092 41.1583 1.51731 40.8634 2.17151 40.8634H3.58138C3.18343 37.8878 3.14777 34.695 3.4767 31.3367C4.76748 18.1522 11.133 6.83413 19.3207 3.15537C22.6858 1.52286 26.6944 1.52286 30.0593 3.1556C38.2473 6.83435 44.612 18.1522 45.9028 31.3367C46.2318 34.695 46.1959 37.8878 45.7979 40.8634H47.2085C47.8627 40.8634 48.4821 41.1585 48.8945 41.6664C49.3068 42.1745 49.4682 42.8413 49.3336 43.4816C48.8431 45.8156 48.1443 48.0383 47.2565 50.0877C46.7799 51.1881 45.5012 51.6933 44.4008 51.2174C43.3002 50.7405 42.7946 49.4621 43.2712 48.3617C43.706 47.3573 44.0895 46.3025 44.4184 45.2062H43.2634C43.2335 45.2066 43.204 45.2066 43.1741 45.2062H6.20502C6.1753 45.2066 6.14536 45.2066 6.11564 45.2062H4.96315C6.85144 51.4725 10.538 56.343 15.5215 59.0809C16.1674 59.4359 16.5894 60.0945 16.6417 60.8298C16.6941 61.5651 16.3699 62.2767 15.7807 62.7199C12.9449 64.8517 10.8303 67.9464 9.57862 71.7646H15.7034C16.9025 71.7648 17.8747 72.737 17.8747 73.9363ZM7.96851 40.8634H41.4103C41.8408 38.0613 41.8984 35.0074 41.5804 31.76C40.4528 20.243 34.9731 10.1051 28.2545 7.10614C28.2311 7.09585 28.2083 7.08511 28.1854 7.07391C26.0292 6.01924 23.3501 6.01901 21.1936 7.07391C21.1708 7.08511 21.1479 7.09585 21.1248 7.10614C14.4064 10.1049 8.92648 20.243 7.7989 31.76C7.48095 35.0074 7.53832 38.061 7.96851 40.8634ZM99.3938 36.0468C99.9424 36.6356 100.12 37.4795 99.8562 38.2398C97.2042 45.875 90.2292 51.742 81.6524 53.5514C79.829 53.9359 77.9979 54.1235 76.1912 54.1235C69.9011 54.1235 63.9115 51.8505 59.6123 47.7087L55.8703 51.7849C55.0595 52.6684 53.6862 52.7274 52.802 51.9161C51.9188 51.1051 51.8598 49.7314 52.6711 48.8479L56.5713 44.5991C53.9102 33.9187 57.1951 21.9777 65.301 13.1468C73.7127 3.98374 85.9035 -0.294347 97.1165 1.98482C97.9051 2.14482 98.5403 2.72816 98.7675 3.5003C101.505 12.811 99.6043 23.2246 93.8323 31.7632C95.9322 32.9086 97.8239 34.3622 99.3938 36.0468ZM87.1644 33.2158C87.7347 32.5946 88.2775 31.9566 88.7934 31.3031C88.8143 31.2752 88.8357 31.248 88.8577 31.2215C94.6769 23.8004 96.953 14.446 94.9427 6.01056C85.5783 4.60914 75.5583 8.39555 68.5004 16.084C62.1198 23.0351 59.1243 32.1269 60.2306 40.6131L65.8711 34.4689L64.5709 28.5409C64.314 27.3695 65.0553 26.2117 66.2267 25.9548C67.3989 25.6972 68.556 26.4391 68.8129 27.6106L69.4598 30.5593L75.7841 23.6697L74.4839 17.7422C74.227 16.5707 74.9683 15.4127 76.1398 15.1558C77.3115 14.8989 78.469 15.6401 78.7259 16.8116L79.3728 19.7603L83.6513 15.0993C84.4621 14.2166 85.8356 14.1569 86.7193 14.9683C87.6028 15.7793 87.6618 17.1531 86.8505 18.0366L82.572 22.6973L85.5657 23.0902C86.7548 23.2461 87.5923 24.3364 87.4364 25.5255C87.2805 26.7146 86.1908 27.5542 85.0011 27.3962L78.9835 26.6069L72.6592 33.4965L75.6527 33.8892C76.8417 34.0451 77.6792 35.1354 77.5234 36.3245C77.3675 37.5136 76.2783 38.3532 75.0881 38.1952L69.0705 37.4061L63.4303 43.5504C71.9899 43.9316 80.7831 40.1676 87.1644 33.2158ZM95.2629 38.0651C94.0588 36.9675 92.669 36.0198 91.1549 35.2632C90.8964 35.5631 90.6328 35.8596 90.3636 36.1528C84.1089 42.9666 75.7621 47.0785 67.2837 47.8024C71.2642 49.7195 76.0319 50.2989 80.7559 49.3019C87.3676 47.9071 92.808 43.6585 95.2629 38.0651ZM84.4296 73.2492C85.5556 76.079 85.461 79.4083 84.1755 82.1697C79.9671 91.83 56.9117 97.8382 48.8456 98.4921C47.809 98.5762 46.7884 98.6181 45.7901 98.6181C36.084 98.6185 28.2805 94.6842 24.1 87.5752C19.8919 80.4188 20.1511 71.3335 24.7602 64.4288C29.8102 56.864 39.0416 53.404 50.0881 54.9398C58.1035 56.0532 80.7788 63.365 84.4296 73.2492ZM80.387 74.8365C80.3783 74.815 80.3701 74.7935 80.3623 74.7715C79.2516 71.728 74.4947 68.1107 67.3113 64.8482C60.4882 61.7489 53.291 59.7694 49.4911 59.2421C47.8542 59.0147 46.3291 58.9111 44.9099 58.9111C35.2506 58.9111 30.4678 63.7024 28.3729 66.8405C24.6822 72.3694 24.4747 79.6442 27.8442 85.374C30.0381 89.1048 35.6394 95.2079 48.4947 94.1637C52.3186 93.8538 59.6174 92.2878 66.6059 89.5826C73.9635 86.7345 78.9188 83.3947 80.2012 80.4193C80.2105 80.3978 80.2199 80.3768 80.2297 80.3557C81.0188 78.6745 81.0791 76.5597 80.387 74.8365ZM62.0515 74.1135C62.8929 75.9947 62.8298 78.2011 61.8828 80.0318C59.9045 84.0971 54.2458 87.1258 47.7852 87.5727C47.2601 87.609 46.7433 87.6268 46.2373 87.6268C40.7324 87.6271 36.3754 85.5011 34.1443 81.6723C32.173 78.2894 32.2909 74.1599 34.4517 70.8948C37.1224 66.8597 42.2097 64.9973 48.4065 65.782C54.8305 66.5964 60.3072 69.9423 62.0515 74.1135ZM58.0815 75.8744C58.071 75.8513 58.061 75.8283 58.0514 75.805C57.0941 73.4858 53.2862 70.7785 47.8604 70.0905C47.112 69.9956 46.3888 69.9488 45.6964 69.9488C42.2275 69.9488 39.5104 71.1207 38.0735 73.2917C36.8317 75.1681 36.764 77.5417 37.8968 79.4858C39.4692 82.1844 42.9629 83.5536 47.4855 83.2399C52.9422 82.8626 56.898 80.3765 57.9853 78.1159C57.9965 78.093 58.0079 78.0706 58.0194 78.048C58.3664 77.3867 58.3901 76.5538 58.0815 75.8744Z" fill="#00712D"></path></g><defs><clipPath id="clip0_1_146"><rect width="100" height="100" fill="white" transform="translate(0 0.161865)"></rect></clipPath></defs></svg>