<svg xmlns="http://www.w3.org/2000/svg" width="40" height="40" viewBox="0 0 40 40" fill="none"><path d="M14.1667 23.75C14.1667 26.95 16.8 29.5833 20 29.5833C23.2 29.5833 25.8333 26.95 25.8333 23.75" stroke="#00712D" stroke-width="3" stroke-miterlimit="10" stroke-linecap="round" stroke-linejoin="round"></path><path d="M14.6833 3.33325L8.65 9.38325" stroke="#00712D" stroke-width="3" stroke-miterlimit="10" stroke-linecap="round" stroke-linejoin="round"></path><path d="M25.3167 3.33325L31.35 9.38325" stroke="#00712D" stroke-width="3" stroke-miterlimit="10" stroke-linecap="round" stroke-linejoin="round"></path><path d="M3.33334 13.0833C3.33334 10 4.98334 9.75 7.03334 9.75H32.9667C35.0167 9.75 36.6667 10 36.6667 13.0833C36.6667 16.6667 35.0167 16.4167 32.9667 16.4167H7.03334C4.98334 16.4167 3.33334 16.6667 3.33334 13.0833Z" stroke="#00712D" stroke-width="3"></path><path d="M5.83334 16.6667L8.18334 31.0667C8.71667 34.3001 10 36.6668 14.7667 36.6668H24.8167C30 36.6668 30.7667 34.4001 31.3667 31.2668L34.1667 16.6667" stroke="#00712D" stroke-width="3" stroke-linecap="round"></path></svg>