<svg xmlns="http://www.w3.org/2000/svg" width="100" height="101" viewBox="0 0 100 101" fill="none"><path d="M69.875 74.0369V38.2453C69.8754 34.0598 68.2271 30.0426 65.287 27.0635C62.347 24.0845 58.3518 22.3834 54.1667 22.3286H22.1667C17.9453 22.3286 13.8968 24.0055 10.9119 26.9905C7.92693 29.9755 6.25 34.0239 6.25 38.2453V77.9953C6.25 82.2166 7.92693 86.2651 10.9119 89.2501C13.8968 92.235 17.9453 93.9119 22.1667 93.9119H54.1667C56.0626 93.9122 57.9419 93.559 59.7083 92.8703" stroke="#00712D" stroke-width="6" stroke-miterlimit="10"></path><path d="M61.9167 6.41187H14.2083V22.3285H61.9167V6.41187Z" stroke="#00712D" stroke-width="6" stroke-miterlimit="10"></path><path d="M63.9167 93.9119H83.7917C89.2915 93.9119 93.75 89.4627 93.75 83.9744C93.75 78.486 89.2915 74.0369 83.7917 74.0369H63.9167C58.4168 74.0369 53.9583 78.486 53.9583 83.9744C53.9583 89.4627 58.4168 93.9119 63.9167 93.9119Z" stroke="#00712D" stroke-width="6" stroke-miterlimit="10"></path><path d="M73.875 74.0369V93.9119" stroke="#00712D" stroke-width="6" stroke-miterlimit="10"></path><path d="M39.4167 50.1619L34.0833 66.0785H42.0417L36.75 81.9952" stroke="#00712D" stroke-width="6" stroke-miterlimit="10"></path><path d="M10.2083 38.2451H57.9583" stroke="#00712D" stroke-width="6" stroke-miterlimit="10"></path></svg>