<svg xmlns="http://www.w3.org/2000/svg" width="100" height="101" viewBox="0 0 100 101" fill="none"><path d="M16.6667 50.1608H33.3333L39.5833 37.6607L47.9167 58.4942L54.1667 50.1608H62.5M50 26.9516C52.0183 22.9298 56.1179 19.8509 59.2446 18.3253C67.1225 14.4813 74.93 16.4617 81.3979 22.9298C89.5338 31.0657 89.5338 44.2567 81.3979 52.3925L52.9463 80.8446C51.3192 82.4717 48.6808 82.4717 47.0538 80.8446L18.602 52.3925C10.466 44.2567 10.466 31.0657 18.602 22.9298C25.07 16.4617 32.8773 14.4813 40.7552 18.3253C43.8821 19.8509 47.9817 22.9298 50 26.9516Z" stroke="#00712D" stroke-width="6" stroke-linecap="round" stroke-linejoin="round"></path></svg>