<svg xmlns="http://www.w3.org/2000/svg" width="100" height="101" viewBox="0 0 100 101" fill="none"><path d="M53.9844 10.8257V6.29443C53.9844 4.0874 52.207 2.31006 50 2.31006C47.793 2.31006 46.0156 4.0874 46.0156 6.29443V10.8257C23.6914 12.603 6.13281 29.1655 6.13281 49.2632V86.3921C6.13281 96.8804 36.8164 97.9937 50 97.9937C63.1836 97.9937 93.8672 96.8608 93.8672 86.3921V49.2632C93.8672 29.1655 76.3086 12.603 53.9844 10.8257ZM50 90.0444C33.0273 90.0444 21.7188 88.1108 16.582 86.4312C19.9219 85.3179 26.3281 83.9116 37.2461 83.189C39.4336 83.0522 41.1133 81.1382 40.957 78.9507C40.8203 76.7437 38.9062 75.103 36.7188 75.2397C25.6641 75.9624 18.6133 77.3101 14.1016 78.8335V49.2632C14.1016 32.3882 30.2148 18.6382 50 18.6382C69.7852 18.6382 85.8984 32.3882 85.8984 49.2632V77.7593C83.9062 77.1343 81.7188 76.7241 79.5508 76.4116C77.3633 76.0991 75.3516 77.603 75.0195 79.771C74.707 81.9585 76.2109 83.9702 78.3789 84.3022C81.9531 84.8296 83.8867 85.4155 84.9023 85.8647C80.7422 87.6421 68.8672 90.0444 50 90.0444Z" fill="#00712D"></path><path d="M62.5977 70.7086C66.1133 62.7398 66.0938 54.4976 62.4609 47.3297C58.1445 38.7945 49.1016 32.7398 37.6563 30.7281C35.918 30.4156 34.1797 31.2945 33.3789 32.8961C29.2383 41.275 29.0625 50.0445 32.8906 57.6031C36.875 65.4937 44.9023 71.2554 55.1367 73.6773C56.6406 78.5601 59.3164 82.8961 59.4531 83.1109C60.625 84.9859 63.0859 85.5523 64.9414 84.3804C66.8164 83.2086 67.3828 80.7476 66.2109 78.8922C65.4883 77.6617 63.5156 74.068 62.5977 70.7086ZM40.0391 53.9898C37.793 49.5367 37.5781 44.4 39.3555 39.2437C46.8164 41.2359 52.5586 45.3765 55.3516 50.9234C57.5977 55.3765 57.8125 60.5133 56.0352 65.6695C48.5742 63.6773 42.832 59.5172 40.0391 53.9898Z" fill="#00712D"></path></svg>