<svg xmlns="http://www.w3.org/2000/svg" width="100" height="100" viewBox="0 0 100 100" fill="none"><g clip-path="url(#clip0_1_134)"><path d="M53.125 21.875H43.75C42.0868 21.8694 40.4398 22.2016 38.9088 22.8516C37.3779 23.5016 35.9949 24.4557 34.8437 25.6562C33.414 23.53 31.4833 21.788 29.2218 20.5836C26.9603 19.3793 24.4372 18.7496 21.875 18.75H9.375C8.5462 18.75 7.75134 19.0792 7.16529 19.6653C6.57924 20.2513 6.25 21.0462 6.25 21.875V28.125C6.25 32.269 7.8962 36.2433 10.8265 39.1735C13.7567 42.1038 17.731 43.75 21.875 43.75H43.75C47.0652 43.75 50.2446 42.433 52.5888 40.0888C54.933 37.7446 56.25 34.5652 56.25 31.25V25C56.25 24.1712 55.9208 23.3763 55.3347 22.7903C54.7487 22.2042 53.9538 21.875 53.125 21.875ZM12.5 28.125V25H21.875C24.3614 25 26.746 25.9877 28.5041 27.7459C30.2623 29.504 31.25 31.8886 31.25 34.375V37.5H21.875C19.3886 37.5 17.004 36.5123 15.2459 34.7541C13.4877 32.996 12.5 30.6114 12.5 28.125ZM50 31.25C50 32.9076 49.3415 34.4973 48.1694 35.6694C46.9973 36.8415 45.4076 37.5 43.75 37.5H37.5V34.375C37.5 32.7174 38.1585 31.1277 39.3306 29.9556C40.5027 28.7835 42.0924 28.125 43.75 28.125H50V31.25Z" fill="#00712D"></path><path d="M96.875 37.5H88.9375L90.625 29.875C93.589 28.5633 96.0717 26.3623 97.7292 23.5769C99.3867 20.7915 100.137 17.5596 99.876 14.3288C99.6151 11.0981 98.3559 8.02847 96.2728 5.54517C94.1898 3.06187 91.3861 1.28782 88.25 0.468785C85.9252 -0.12288 83.4954 -0.171305 81.1489 0.327262C78.8024 0.82583 76.6021 1.858 74.7188 3.34379C72.8592 4.80557 71.3557 6.67048 70.3218 8.79789C69.2879 10.9253 68.7504 13.2597 68.75 15.625C68.7681 19.4339 70.1418 23.1118 72.625 26L70.0625 37.5H3.125C2.2962 37.5 1.50134 37.8293 0.915291 38.4153C0.32924 39.0014 0 39.7962 0 40.625L0 53.125C0 53.9538 0.32924 54.7487 0.915291 55.3347C1.50134 55.9208 2.2962 56.25 3.125 56.25H6.25V65.625C6.25 74.7419 9.87164 83.4853 16.3182 89.9318C22.7648 96.3784 31.5082 100 40.625 100H59.375C63.8892 100 68.3592 99.1109 72.5297 97.3834C76.7003 95.6559 80.4898 93.1238 83.6818 89.9318C86.8738 86.7398 89.4059 82.9503 91.1334 78.7798C92.8609 74.6092 93.75 70.1392 93.75 65.625V56.25H96.875C97.7038 56.25 98.4987 55.9208 99.0847 55.3347C99.6708 54.7487 100 53.9538 100 53.125V40.625C100 39.7962 99.6708 39.0014 99.0847 38.4153C98.4987 37.8293 97.7038 37.5 96.875 37.5ZM77.3438 21.875C76.5071 20.9183 75.8737 19.8014 75.4821 18.5922C75.0904 17.383 74.9488 16.1068 75.0657 14.8412C75.1826 13.5756 75.5557 12.347 76.1622 11.23C76.7687 10.1131 77.5959 9.13109 78.5938 8.34378C79.7322 7.44291 81.0643 6.81875 82.4852 6.52049C83.906 6.22223 85.3766 6.25802 86.7812 6.62503C88.6524 7.1308 90.3208 8.20411 91.5568 9.69723C92.7928 11.1904 93.5355 13.0299 93.6829 14.9626C93.8302 16.8953 93.3749 18.8261 92.3796 20.4894C91.3843 22.1526 89.8979 23.4664 88.125 24.25C87.2457 24.608 86.4656 25.1727 85.8509 25.8962C85.2362 26.6197 84.805 27.4807 84.5938 28.4063L82.5625 37.5H76.3125L78.5625 27.375C78.8041 26.4269 78.8196 25.4352 78.6079 24.4799C78.3963 23.5246 77.9632 22.6324 77.3438 21.875ZM87.5 65.625C87.5 73.0843 84.5368 80.238 79.2624 85.5124C73.9879 90.7869 66.8342 93.75 59.375 93.75H40.625C33.1658 93.75 26.0121 90.7869 20.7376 85.5124C15.4632 80.238 12.5 73.0843 12.5 65.625V56.25H87.5V65.625ZM93.75 50H6.25V43.75H93.75V50Z" fill="#00712D"></path><path d="M56.25 71.875H53.125V68.75C53.125 67.9212 52.7958 67.1263 52.2097 66.5403C51.6237 65.9542 50.8288 65.625 50 65.625C49.1712 65.625 48.3763 65.9542 47.7903 66.5403C47.2042 67.1263 46.875 67.9212 46.875 68.75V71.875H43.75C42.9212 71.875 42.1263 72.2042 41.5403 72.7903C40.9542 73.3763 40.625 74.1712 40.625 75C40.625 75.8288 40.9542 76.6237 41.5403 77.2097C42.1263 77.7958 42.9212 78.125 43.75 78.125H46.875V81.25C46.875 82.0788 47.2042 82.8737 47.7903 83.4597C48.3763 84.0458 49.1712 84.375 50 84.375C50.8288 84.375 51.6237 84.0458 52.2097 83.4597C52.7958 82.8737 53.125 82.0788 53.125 81.25V78.125H56.25C57.0788 78.125 57.8737 77.7958 58.4597 77.2097C59.0458 76.6237 59.375 75.8288 59.375 75C59.375 74.1712 59.0458 73.3763 58.4597 72.7903C57.8737 72.2042 57.0788 71.875 56.25 71.875Z" fill="#00712D"></path><path d="M21.875 12.5C21.0462 12.5 20.2513 12.1708 19.6653 11.5847C19.0792 10.9987 18.75 10.2038 18.75 9.375C18.75 8.5462 19.0792 7.75134 19.6653 7.16529C20.2513 6.57924 21.0462 6.25 21.875 6.25C22.7038 6.25 23.4987 6.57924 24.0847 7.16529C24.6708 7.75134 25 8.5462 25 9.375C25 10.2038 24.6708 10.9987 24.0847 11.5847C23.4987 12.1708 22.7038 12.5 21.875 12.5Z" fill="#00712D"></path><path d="M46.875 15.625C46.0462 15.625 45.2513 15.2958 44.6653 14.7097C44.0792 14.1237 43.75 13.3288 43.75 12.5C43.75 11.6712 44.0792 10.8763 44.6653 10.2903C45.2513 9.70424 46.0462 9.375 46.875 9.375C47.7038 9.375 48.4987 9.70424 49.0847 10.2903C49.6708 10.8763 50 11.6712 50 12.5C50 13.3288 49.6708 14.1237 49.0847 14.7097C48.4987 15.2958 47.7038 15.625 46.875 15.625Z" fill="#00712D"></path><path d="M34.375 6.25C33.5462 6.25 32.7513 5.92076 32.1653 5.33471C31.5792 4.74866 31.25 3.9538 31.25 3.125C31.25 2.2962 31.5792 1.50134 32.1653 0.915291C32.7513 0.32924 33.5462 0 34.375 0C35.2038 0 35.9987 0.32924 36.5847 0.915291C37.1708 1.50134 37.5 2.2962 37.5 3.125C37.5 3.9538 37.1708 4.74866 36.5847 5.33471C35.9987 5.92076 35.2038 6.25 34.375 6.25Z" fill="#00712D"></path></g><defs><clipPath id="clip0_1_134"><rect width="100" height="100" fill="white"></rect></clipPath></defs></svg>