<svg xmlns="http://www.w3.org/2000/svg" width="100" height="100" viewBox="0 0 100 100" fill="none"><path d="M95.9985 29.3811C93.6441 27.888 90.5353 28.5827 89.0422 30.9308C89.0139 30.9622 88.665 31.506 87.9986 32.3673L57.9417 9.04349C58.234 8.66315 58.4321 8.43054 58.4887 8.35824C60.3244 6.27419 60.1264 3.09938 58.0392 1.26051C55.908 -0.581502 52.7614 -0.380326 50.9289 1.70687C50.275 2.43613 37.3244 17.5306 41.0147 37.8871C41.4736 40.4112 42.1809 43.017 43.2025 45.6857L43.2056 45.6889C43.9977 48.3199 44.9753 51.0326 46.1572 53.8396C43.5639 50.0613 39.4304 45.5003 33.7818 43.5734C13.9471 46.0189 2.98934 62.7511 2.45496 63.5967C0.958721 65.9448 1.63769 69.0567 3.99522 70.5561C6.3496 72.0555 9.45839 71.3545 10.9546 69.0095C10.9704 68.9875 11.1369 68.7329 11.445 68.3023L41.7817 91.843C40.1345 93.927 40.386 96.9572 42.4072 98.7395C44.529 100.585 47.6818 100.377 49.5206 98.29C50.1619 97.567 63.1534 82.4286 59.416 62.025C58.957 59.526 58.2529 56.9516 57.2345 54.308C56.2411 50.9949 54.9461 47.5592 53.3335 43.9726C53.1229 43.4917 52.9217 43.0107 52.73 42.5361C51.9599 40.5935 51.3941 38.6949 51.0169 36.8466L63.5243 46.5439C61.1008 46.7388 58.5201 46.6445 55.7948 46.1698C55.3767 46.0944 54.9681 46.0347 54.5563 45.9655C56.7347 49.6998 59.9755 54.0282 64.2002 56.5618C85.2953 55.0436 96.9824 37.2112 97.5324 36.3374C99.035 33.9924 98.3592 30.8805 95.9985 29.3811ZM54.1917 15.085L83.1641 37.5696C82.4663 38.2014 81.7119 38.8426 80.9009 39.4776L52.9595 17.8041C53.3555 16.8359 53.7705 15.9275 54.1917 15.085ZM44.1989 53.7611C44.8999 53.8868 45.5851 53.9937 46.2672 54.1005C46.5313 54.7355 46.8173 55.3736 47.1097 56.018C48.4833 59.0608 49.3006 61.9998 49.7155 64.8163L35.1586 53.519C37.9562 53.1701 40.977 53.1984 44.1989 53.7611ZM45.7266 85.9366L16.1632 62.9931C16.8359 62.355 17.5683 61.6981 18.3667 61.0442L47.0248 83.2804C46.6099 84.236 46.1635 85.1287 45.7266 85.9366ZM49.3509 76.1198L24.5749 56.8981C25.2507 56.5461 25.9485 56.2066 26.6589 55.8923L49.7532 73.8032C49.6432 74.5922 49.5081 75.3686 49.3509 76.1198ZM50.5391 27.5139C50.6145 26.7029 50.7308 25.9077 50.866 25.1344L74.523 43.4948C73.8283 43.8343 73.1179 44.1581 72.3698 44.4535L50.5391 27.5139Z" fill="#00712D"></path></svg>